# xmcd CD database file
#
# Track frame offsets:
#	150
#	20932
#	36430
#	58892
#
# Disc length: 1041 seconds
#
# Revision: 1
# Processed by: cddbd v1.5.2PL0 Copyright (c) Steve Scherf et al.
# Submitted via: CDex 1.84
#
DISCID=39040f04
DTITLE=Barbra Streisand - If You Ever Leave Me
DYEAR=1999
DGENRE=Ballad
TTITLE0=If You Ever Leave Me (duet with Vince Gill)
TTITLE1=Just Because
TTITLE2=Let's Start Right Now
TTITLE3=At The Same Time
EXTD=YEAR: 1999
EXTT0=
EXTT1=
EXTT2=
EXTT3=
PLAYORDER=
